<?xml version="1.0" encoding="UTF-8" standalone="no"?>
<!-- Created with Inkscape (http://www.inkscape.org/) -->

<svg
   width="1816.5181"
   height="365.66165"
   viewBox="0 0 1816.5181 365.66165"
   version="1.1"
   id="svg5"
   inkscape:version="1.2.1 (9c6d41e410, 2022-07-14)"
   sodipodi:docname="Logo.svg"
   xml:space="preserve"
   xmlns:inkscape="http://www.inkscape.org/namespaces/inkscape"
   xmlns:sodipodi="http://sodipodi.sourceforge.net/DTD/sodipodi-0.dtd"
   xmlns="http://www.w3.org/2000/svg"
   xmlns:svg="http://www.w3.org/2000/svg"><sodipodi:namedview
     id="namedview7"
     pagecolor="#ffffff"
     bordercolor="#000000"
     borderopacity="0.25"
     inkscape:showpageshadow="2"
     inkscape:pageopacity="0.0"
     inkscape:pagecheckerboard="0"
     inkscape:deskcolor="#606060"
     inkscape:document-units="px"
     showgrid="false"
     showborder="false"
     shape-rendering="auto"
     inkscape:zoom="0.37335244"
     inkscape:cx="883.88334"
     inkscape:cy="32.141212"
     inkscape:window-width="1366"
     inkscape:window-height="705"
     inkscape:window-x="-8"
     inkscape:window-y="-8"
     inkscape:window-maximized="1"
     inkscape:current-layer="layer2" /><defs
     id="defs2"><rect
       x="1450.3724"
       y="222.31009"
       width="716.48132"
       height="158.02765"
       id="rect11561" /></defs><g
     inkscape:groupmode="layer"
     id="layer2"
     inkscape:label="Logo"
     style="display:inline"
     transform="translate(-1351.741,-320.95706)"><rect
       style="fill:#111111;fill-opacity:1;stroke:none;stroke-width:35.3722;stroke-linecap:round;stroke-linejoin:round"
       id="rect638"
       width="1816.5179"
       height="365.66165"
       x="1351.7411"
       y="320.95706"
       ry="100"
       inkscape:label="Background" /><path
       id="path11505"
       style="display:inline;fill:#e16969;fill-opacity:1;stroke:none;stroke-width:1.63933;stroke-linecap:round;stroke-linejoin:round;stroke-dasharray:none;stroke-opacity:1"
       d="m 1633.6286,592.24664 a 29.667722,29.667722 0 0 1 -29.6676,29.66772 29.667722,29.667722 0 0 1 -29.6675,-29.66772 29.667722,29.667722 0 0 1 29.6675,-29.66773 29.667722,29.667722 0 0 1 29.6676,29.66773 z m -84.848,-216.19433 v 135.12847 14.85415 1.49672 26.66571 a 20.42687,20.42687 0 0 1 -1.3569,1.3558 20.42687,20.42687 0 0 1 -2.3327,1.74655 20.42687,20.42687 0 0 1 -2.5578,1.39745 20.42687,20.42687 0 0 1 -2.7307,1.01845 20.42687,20.42687 0 0 1 -2.8484,0.6192 20.42687,20.42687 0 0 1 -2.9069,0.20817 20.42687,20.42687 0 0 1 -7.8168,-1.55544 20.42687,20.42687 0 0 1 -6.6266,-4.42721 20.42687,20.42687 0 0 1 -4.4282,-6.62748 20.42687,20.42687 0 0 1 -1.5553,-7.8167 v -9.89745 -13.62001 h -34.4537 -33.5984 v 54.21536 a 60.710373,60.710373 0 0 0 1.5211,13.50902 60.710373,60.710373 0 0 0 4.4902,12.83214 60.710373,60.710373 0 0 0 7.2329,11.51053 60.710373,60.710373 0 0 0 9.6135,9.61344 60.710373,60.710373 0 0 0 11.5105,7.23277 60.710373,60.710373 0 0 0 12.8321,4.49019 60.710373,60.710373 0 0 0 13.5091,1.52129 h 5.9024 1.4403 35.1603 9.5633 a 60.710373,60.710373 0 0 0 13.509,-1.52129 60.710373,60.710373 0 0 0 12.8322,-4.49019 60.710373,60.710373 0 0 0 3.8636,-2.13513 34.563652,34.563652 0 0 1 -3.0908,-1.68782 34.563652,34.563652 0 0 1 -3.9478,-2.95504 34.563652,34.563652 0 0 1 -3.4878,-3.48668 34.563652,34.563652 0 0 1 -2.9551,-3.94785 34.563652,34.563652 0 0 1 -2.3634,-4.32901 34.563652,34.563652 0 0 1 -1.7232,-4.62041 34.563652,34.563652 0 0 1 -1.0483,-4.81794 34.563652,34.563652 0 0 1 -0.3521,-4.91935 34.563652,34.563652 0 0 1 0.3521,-4.91937 34.563652,34.563652 0 0 1 1.0483,-4.81793 34.563652,34.563652 0 0 1 1.7232,-4.62148 34.563652,34.563652 0 0 1 2.3634,-4.32794 34.563652,34.563652 0 0 1 2.9551,-3.94787 34.563652,34.563652 0 0 1 3.4878,-3.48666 34.563652,34.563652 0 0 1 3.9478,-2.9561 34.563652,34.563652 0 0 1 4.328,-2.36253 34.563652,34.563652 0 0 1 4.6203,-1.72411 34.563652,34.563652 0 0 1 4.8191,-1.04836 34.563652,34.563652 0 0 1 4.9183,-0.35123 34.563652,34.563652 0 0 1 1.6964,0.0416 34.563652,34.563652 0 0 1 1.692,0.12493 34.563652,34.563652 0 0 1 1.6835,0.20711 34.563652,34.563652 0 0 1 1.6719,0.29036 34.563652,34.563652 0 0 1 1.6547,0.37153 34.563652,34.563652 0 0 1 1.6356,0.45264 34.563652,34.563652 0 0 1 1.611,0.53166 34.563652,34.563652 0 0 1 1.582,0.61064 34.563652,34.563652 0 0 1 1.5512,0.68752 34.563652,34.563652 0 0 1 0.1328,0.0661 V 376.05231 Z"
       inkscape:label="J - logo" /><g
       aria-label="oão Alves Passos"
       transform="matrix(3.897267,0,0,3.897267,-4021.3554,-417.47954)"
       id="text11559"
       style="font-weight:bold;font-size:43.9452px;font-family:Rubik;-inkscape-font-specification:'Rubik Bold';white-space:pre;shape-inside:url(#rect11561);display:inline;fill:#f5f5f5;stroke-width:0.420634;stroke-linecap:round;stroke-linejoin:round"
       inkscape:label="Texto"><path
         d="m 1463.7763,262.91721 q -3.6914,0 -6.2402,-1.18652 -2.5049,-1.18652 -3.8672,-3.38378 -1.3183,-2.2412 -1.4941,-5.31737 -0.044,-0.8789 -0.044,-1.97753 0,-1.14258 0.044,-1.97754 0.1758,-3.12011 1.582,-5.31737 1.4063,-2.19726 3.9112,-3.38378 2.5488,-1.18652 6.1083,-1.18652 3.6035,0 6.1084,1.18652 2.5488,1.18652 3.9551,3.38378 1.4062,2.19726 1.582,5.31737 0.044,0.83496 0.044,1.97754 0,1.09863 -0.044,1.97753 -0.1758,3.07617 -1.5381,5.31737 -1.3183,2.19726 -3.8671,3.38378 -2.5049,1.18652 -6.2403,1.18652 z m 0,-5.36131 q 1.9776,0 2.8565,-1.18652 0.9228,-1.18652 1.0547,-3.55957 0.044,-0.65917 0.044,-1.7578 0,-1.09863 -0.044,-1.75781 -0.1319,-2.3291 -1.0547,-3.51562 -0.8789,-1.23046 -2.8565,-1.23046 -1.8896,0 -2.8564,1.23046 -0.9229,1.18652 -1.0107,3.51562 -0.044,0.65918 -0.044,1.75781 0,1.09863 0.044,1.7578 0.088,2.37305 1.0107,3.55957 0.9668,1.18652 2.8564,1.18652 z"
         id="path510"
         inkscape:label="O" /><path
         d="m 1486.6718,262.91721 q -2.3731,0 -4.2627,-0.8789 -1.8457,-0.92285 -2.9443,-2.46093 -1.0987,-1.53809 -1.0987,-3.47167 0,-3.12011 2.5489,-4.92187 2.5488,-1.8457 6.7675,-2.50487 l 5.4932,-0.83496 v -0.61524 q 0,-1.58202 -0.6592,-2.41698 -0.6592,-0.83496 -2.417,-0.83496 -1.2305,0 -2.0215,0.4834 -0.747,0.48339 -1.1865,1.31835 -0.3955,0.57129 -1.0986,0.57129 h -4.9219 q -0.4834,0 -0.747,-0.26367 -0.2637,-0.30762 -0.2198,-0.70312 0,-0.79102 0.5713,-1.80176 0.6152,-1.05468 1.8457,-2.06542 1.2305,-1.01074 3.1641,-1.66992 1.9336,-0.65918 4.7021,-0.65918 2.8125,0 4.834,0.65918 2.0215,0.65918 3.2959,1.8457 1.2744,1.18652 1.8457,2.81249 0.6152,1.58203 0.6152,3.51562 v 13.35934 q 0,0.43945 -0.3516,0.79101 -0.3076,0.30762 -0.747,0.30762 h -5.0977 q -0.4834,0 -0.791,-0.30762 -0.3076,-0.35156 -0.3076,-0.79101 v -1.53808 q -0.5713,0.83496 -1.5381,1.53808 -0.9668,0.70312 -2.2851,1.09863 -1.2745,0.43945 -2.9883,0.43945 z m 2.0654,-5.00975 q 1.2744,0 2.2852,-0.52734 1.0546,-0.57129 1.6259,-1.71387 0.6153,-1.18652 0.6153,-2.94433 v -0.61523 l -3.7354,0.65918 q -2.0654,0.35156 -3.0322,1.09863 -0.9228,0.70312 -0.9228,1.66992 0,0.74707 0.4394,1.27441 0.4395,0.52734 1.1426,0.83496 0.7471,0.26367 1.582,0.26367 z m 3.999,-21.35737 q -1.2304,0 -1.9775,-0.39551 -0.7471,-0.3955 -1.3623,-0.74707 -0.6152,-0.3955 -1.4063,-0.3955 -0.5712,0 -0.8789,0.30761 -0.2636,0.30762 -0.4834,0.65918 -0.2197,0.35156 -0.7031,0.35156 h -2.6367 q -0.3076,0 -0.5273,-0.21972 -0.2198,-0.26367 -0.2198,-0.52734 0,-0.70313 0.2198,-1.62598 0.2636,-0.96679 0.8349,-1.8457 0.5713,-0.8789 1.4942,-1.45019 0.9668,-0.61523 2.3291,-0.61523 1.2304,0 1.9775,0.39551 0.791,0.3955 1.4062,0.79101 0.6153,0.35156 1.3623,0.35156 0.6153,0 0.835,-0.30761 0.2637,-0.35157 0.4834,-0.65918 0.2637,-0.35156 0.7471,-0.35156 h 2.6367 q 0.3515,0 0.5713,0.21972 0.2197,0.21973 0.2197,0.57129 0,0.70312 -0.2637,1.62597 -0.2637,0.92285 -0.8349,1.8457 -0.5713,0.8789 -1.5381,1.45019 -0.9229,0.57129 -2.2852,0.57129 z"
         id="path512"
         inkscape:label="Ã" /><path
         d="m 1516.5545,262.91721 q -3.6914,0 -6.2402,-1.18652 -2.5049,-1.18652 -3.8672,-3.38378 -1.3183,-2.2412 -1.4941,-5.31737 -0.044,-0.8789 -0.044,-1.97753 0,-1.14258 0.044,-1.97754 0.1758,-3.12011 1.582,-5.31737 1.4063,-2.19726 3.9111,-3.38378 2.5489,-1.18652 6.1084,-1.18652 3.6035,0 6.1084,1.18652 2.5488,1.18652 3.9551,3.38378 1.4062,2.19726 1.582,5.31737 0.044,0.83496 0.044,1.97754 0,1.09863 -0.044,1.97753 -0.1758,3.07617 -1.5381,5.31737 -1.3183,2.19726 -3.8671,3.38378 -2.5049,1.18652 -6.2403,1.18652 z m 0,-5.36131 q 1.9776,0 2.8565,-1.18652 0.9228,-1.18652 1.0547,-3.55957 0.044,-0.65917 0.044,-1.7578 0,-1.09863 -0.044,-1.75781 -0.1319,-2.3291 -1.0547,-3.51562 -0.8789,-1.23046 -2.8565,-1.23046 -1.8896,0 -2.8564,1.23046 -0.9229,1.18652 -1.0107,3.51562 -0.044,0.65918 -0.044,1.75781 0,1.09863 0.044,1.7578 0.088,2.37305 1.0107,3.55957 0.9668,1.18652 2.8564,1.18652 z"
         id="path514"
         inkscape:label="O" /><path
         d="m 1539.5818,262.47776 q -0.3516,0 -0.6592,-0.26367 -0.2636,-0.30762 -0.2636,-0.65918 0,-0.21973 0.044,-0.39551 l 10.3271,-28.21282 q 0.1319,-0.48339 0.5274,-0.83496 0.4394,-0.3955 1.1865,-0.3955 h 6.5039 q 0.747,0 1.1426,0.3955 0.4394,0.35157 0.5712,0.83496 l 10.2832,28.21282 q 0.088,0.17578 0.088,0.39551 0,0.35156 -0.3076,0.65918 -0.2637,0.26367 -0.6592,0.26367 h -5.4052 q -0.6592,0 -1.0108,-0.30762 -0.3076,-0.35156 -0.3955,-0.61523 l -1.7139,-4.48241 h -11.7333 l -1.6699,4.48241 q -0.088,0.26367 -0.3955,0.61523 -0.3077,0.30762 -1.0547,0.30762 z m 10.3271,-11.73337 h 8.1738 l -4.0869,-11.60153 z"
         id="path516"
         inkscape:label="A" /><path
         d="m 1573.4196,262.47776 q -0.4834,0 -0.791,-0.30762 -0.3076,-0.35156 -0.3076,-0.79101 V 232.3753 q 0,-0.4834 0.3076,-0.79102 0.3076,-0.30761 0.791,-0.30761 h 5.1855 q 0.4834,0 0.791,0.30761 0.3077,0.30762 0.3077,0.79102 v 29.00383 q 0,0.43945 -0.3077,0.79101 -0.3076,0.30762 -0.791,0.30762 z"
         id="path518"
         inkscape:label="L" /><path
         d="m 1593.0191,262.47776 q -0.6592,0 -0.9668,-0.30762 -0.3076,-0.35156 -0.5273,-0.79101 l -8.3057,-20.39057 q -0.088,-0.17579 -0.088,-0.39551 0,-0.39551 0.2636,-0.65918 0.3076,-0.30762 0.7471,-0.30762 h 4.9658 q 0.5713,0 0.8789,0.30762 0.3076,0.30762 0.3955,0.61523 l 4.9658,13.49118 5.0098,-13.49118 q 0.088,-0.30761 0.3955,-0.61523 0.3076,-0.30762 0.8789,-0.30762 h 4.9658 q 0.3955,0 0.7031,0.30762 0.3076,0.26367 0.3076,0.65918 0,0.21972 -0.088,0.39551 l -8.3056,20.39057 q -0.1758,0.43945 -0.5273,0.79101 -0.3077,0.30762 -1.0108,0.30762 z"
         id="path520"
         inkscape:label="V" /><path
         d="m 1620.7046,262.91721 q -5.1856,0 -8.2617,-2.81249 -3.0762,-2.81249 -3.208,-8.34959 0,-0.30762 0,-0.79101 0,-0.4834 0,-0.74707 0.1318,-3.47167 1.538,-5.9326 1.4502,-2.50488 3.9551,-3.77929 2.5488,-1.31836 5.9326,-1.31836 3.8672,0 6.3721,1.53808 2.5488,1.53809 3.8232,4.1748 1.2744,2.63671 1.2744,6.02049 v 1.05469 q 0,0.48339 -0.3076,0.79101 -0.3076,0.30762 -0.791,0.30762 h -14.0625 q 0,0.0439 0,0.13183 0,0.0879 0,0.17578 0.044,1.27441 0.4395,2.3291 0.4394,1.05468 1.2304,1.66992 0.835,0.61523 2.0215,0.61523 0.8789,0 1.4502,-0.26367 0.6152,-0.30762 1.0107,-0.65918 0.3955,-0.39551 0.6153,-0.65918 0.3955,-0.4834 0.6152,-0.57129 0.2637,-0.13183 0.791,-0.13183 h 5.4492 q 0.4395,0 0.7032,0.26367 0.3076,0.26367 0.2636,0.70312 -0.044,0.74707 -0.747,1.80176 -0.7032,1.05468 -2.0655,2.10937 -1.3183,1.01074 -3.3398,1.66991 -2.0215,0.65918 -4.7021,0.65918 z m -3.7354,-14.1943 h 7.4268 v -0.0879 q 0,-1.45019 -0.4395,-2.46093 -0.3955,-1.05469 -1.2744,-1.62597 -0.835,-0.57129 -2.0215,-0.57129 -1.1426,0 -1.9775,0.57129 -0.835,0.57128 -1.2744,1.62597 -0.4395,1.01074 -0.4395,2.46093 z"
         id="path522"
         inkscape:label="E" /><path
         d="m 1645.6654,262.91721 q -2.8564,0 -4.8779,-0.61523 -1.9775,-0.65918 -3.2519,-1.58203 -1.2305,-0.92285 -1.8457,-1.88964 -0.6153,-1.01074 -0.6592,-1.75781 -0.044,-0.4834 0.3076,-0.79101 0.3516,-0.30762 0.7471,-0.30762 h 5.0097 q 0.1319,0 0.2197,0.0439 0.1319,0.0439 0.2637,0.17579 0.5713,0.30761 1.1426,0.79101 0.5713,0.43945 1.3183,0.79101 0.7471,0.35156 1.8018,0.35156 1.2305,0 2.0654,-0.48339 0.835,-0.52735 0.835,-1.45019 0,-0.70313 -0.3955,-1.14258 -0.3955,-0.4834 -1.626,-0.92285 -1.1865,-0.43945 -3.6035,-0.8789 -2.2852,-0.52735 -3.999,-1.3623 -1.7139,-0.87891 -2.6367,-2.24121 -0.9229,-1.40625 -0.9229,-3.38378 0,-1.75781 1.1426,-3.38378 1.1426,-1.62597 3.3398,-2.63671 2.1973,-1.05469 5.4492,-1.05469 2.5049,0 4.3946,0.61524 1.8896,0.57128 3.164,1.49413 1.2744,0.92285 1.9336,1.88965 0.6592,0.96679 0.7031,1.7578 0.044,0.43946 -0.2636,0.79102 -0.3077,0.30761 -0.7032,0.30761 h -4.5703 q -0.1757,0 -0.3515,-0.0439 -0.1758,-0.0879 -0.3076,-0.17578 -0.5274,-0.26367 -1.0547,-0.70313 -0.5274,-0.43945 -1.2305,-0.79101 -0.7031,-0.35156 -1.7578,-0.35156 -1.1865,0 -1.8457,0.52734 -0.6592,0.52734 -0.6592,1.3623 0,0.57129 0.3516,1.05469 0.3955,0.4834 1.5381,0.8789 1.1865,0.39551 3.6474,0.87891 3.0322,0.48339 4.834,1.58202 1.8017,1.05469 2.5488,2.50488 0.791,1.40625 0.791,2.98827 0,2.10937 -1.2744,3.73535 -1.2744,1.62597 -3.7353,2.54882 -2.417,0.8789 -5.9766,0.8789 z"
         id="path524"
         inkscape:label="S" /><path
         d="m 1671.5051,262.47776 q -0.4834,0 -0.791,-0.30762 -0.3076,-0.35156 -0.3076,-0.79101 v -28.56438 q 0,-0.4834 0.3076,-0.79102 0.3076,-0.30761 0.791,-0.30761 h 12.3047 q 3.6475,0 6.3281,1.14257 2.7246,1.09863 4.2188,3.33984 1.538,2.2412 1.538,5.66893 0,3.38378 -1.538,5.58104 -1.4942,2.19726 -4.2188,3.25195 -2.6806,1.05468 -6.3281,1.05468 h -5.2295 v 9.624 q 0,0.43945 -0.3515,0.79101 -0.3077,0.30762 -0.7911,0.30762 z m 6.9434,-16.78707 h 5.1416 q 1.8896,0 2.9883,-0.96679 1.1425,-0.9668 1.1425,-2.94433 0,-1.66992 -0.9668,-2.81249 -0.9668,-1.14258 -3.164,-1.14258 h -5.1416 z"
         id="path526"
         inkscape:label="P" /><path
         d="m 1706.0022,262.91721 q -2.3731,0 -4.2627,-0.8789 -1.8457,-0.92285 -2.9443,-2.46093 -1.0987,-1.53809 -1.0987,-3.47167 0,-3.12011 2.5489,-4.92187 2.5488,-1.8457 6.7675,-2.50487 l 5.4932,-0.83496 v -0.61524 q 0,-1.58202 -0.6592,-2.41698 -0.6592,-0.83496 -2.417,-0.83496 -1.2305,0 -2.0215,0.4834 -0.747,0.48339 -1.1865,1.31835 -0.3955,0.57129 -1.0986,0.57129 h -4.9219 q -0.4834,0 -0.7471,-0.26367 -0.2636,-0.30762 -0.2197,-0.70312 0,-0.79102 0.5713,-1.80176 0.6152,-1.05468 1.8457,-2.06542 1.2305,-1.01074 3.1641,-1.66992 1.9335,-0.65918 4.7021,-0.65918 2.8125,0 4.834,0.65918 2.0214,0.65918 3.2959,1.8457 1.2744,1.18652 1.8457,2.81249 0.6152,1.58203 0.6152,3.51562 v 13.35934 q 0,0.43945 -0.3516,0.79101 -0.3076,0.30762 -0.747,0.30762 h -5.0977 q -0.4834,0 -0.791,-0.30762 -0.3076,-0.35156 -0.3076,-0.79101 v -1.53808 q -0.5713,0.83496 -1.5381,1.53808 -0.9668,0.70312 -2.2852,1.09863 -1.2744,0.43945 -2.9882,0.43945 z m 2.0654,-5.00975 q 1.2744,0 2.2851,-0.52734 1.0547,-0.57129 1.626,-1.71387 0.6153,-1.18652 0.6153,-2.94433 v -0.61523 l -3.7354,0.65918 q -2.0654,0.35156 -3.0322,1.09863 -0.9229,0.70312 -0.9229,1.66992 0,0.74707 0.4395,1.27441 0.4394,0.52734 1.1426,0.83496 0.747,0.26367 1.582,0.26367 z"
         id="path528"
         inkscape:label="A" /><path
         d="m 1734.4787,262.91721 q -2.8565,0 -4.8779,-0.61523 -1.9776,-0.65918 -3.252,-1.58203 -1.2305,-0.92285 -1.8457,-1.88964 -0.6152,-1.01074 -0.6592,-1.75781 -0.044,-0.4834 0.3076,-0.79101 0.3516,-0.30762 0.7471,-0.30762 h 5.0098 q 0.1318,0 0.2197,0.0439 0.1318,0.0439 0.2637,0.17579 0.5713,0.30761 1.1425,0.79101 0.5713,0.43945 1.3184,0.79101 0.7471,0.35156 1.8017,0.35156 1.2305,0 2.0655,-0.48339 0.8349,-0.52735 0.8349,-1.45019 0,-0.70313 -0.3955,-1.14258 -0.3955,-0.4834 -1.6259,-0.92285 -1.1866,-0.43945 -3.6036,-0.8789 -2.2851,-0.52735 -3.999,-1.3623 -1.7138,-0.87891 -2.6367,-2.24121 -0.9228,-1.40625 -0.9228,-3.38378 0,-1.75781 1.1425,-3.38378 1.1426,-1.62597 3.3399,-2.63671 2.1972,-1.05469 5.4492,-1.05469 2.5049,0 4.3945,0.61524 1.8897,0.57128 3.1641,1.49413 1.2744,0.92285 1.9336,1.88965 0.6591,0.96679 0.7031,1.7578 0.044,0.43946 -0.2637,0.79102 -0.3076,0.30761 -0.7031,0.30761 h -4.5703 q -0.1758,0 -0.3516,-0.0439 -0.1758,-0.0879 -0.3076,-0.17578 -0.5273,-0.26367 -1.0547,-0.70313 -0.5273,-0.43945 -1.2304,-0.79101 -0.7032,-0.35156 -1.7579,-0.35156 -1.1865,0 -1.8457,0.52734 -0.6591,0.52734 -0.6591,1.3623 0,0.57129 0.3515,1.05469 0.3955,0.4834 1.5381,0.8789 1.1865,0.39551 3.6475,0.87891 3.0322,0.48339 4.8339,1.58202 1.8018,1.05469 2.5489,2.50488 0.791,1.40625 0.791,2.98827 0,2.10937 -1.2744,3.73535 -1.2745,1.62597 -3.7354,2.54882 -2.417,0.8789 -5.9765,0.8789 z"
         id="path530"
         inkscape:label="S" /><path
         d="m 1758.7803,262.91721 q -2.8564,0 -4.8779,-0.61523 -1.9775,-0.65918 -3.2519,-1.58203 -1.2305,-0.92285 -1.8457,-1.88964 -0.6153,-1.01074 -0.6592,-1.75781 -0.044,-0.4834 0.3076,-0.79101 0.3516,-0.30762 0.7471,-0.30762 h 5.0097 q 0.1319,0 0.2198,0.0439 0.1318,0.0439 0.2636,0.17579 0.5713,0.30761 1.1426,0.79101 0.5713,0.43945 1.3184,0.79101 0.747,0.35156 1.8017,0.35156 1.2305,0 2.0654,-0.48339 0.835,-0.52735 0.835,-1.45019 0,-0.70313 -0.3955,-1.14258 -0.3955,-0.4834 -1.626,-0.92285 -1.1865,-0.43945 -3.6035,-0.8789 -2.2851,-0.52735 -3.999,-1.3623 -1.7139,-0.87891 -2.6367,-2.24121 -0.9229,-1.40625 -0.9229,-3.38378 0,-1.75781 1.1426,-3.38378 1.1426,-1.62597 3.3398,-2.63671 2.1973,-1.05469 5.4493,-1.05469 2.5048,0 4.3945,0.61524 1.8896,0.57128 3.164,1.49413 1.2744,0.92285 1.9336,1.88965 0.6592,0.96679 0.7031,1.7578 0.044,0.43946 -0.2636,0.79102 -0.3076,0.30761 -0.7032,0.30761 h -4.5703 q -0.1757,0 -0.3515,-0.0439 -0.1758,-0.0879 -0.3076,-0.17578 -0.5274,-0.26367 -1.0547,-0.70313 -0.5274,-0.43945 -1.2305,-0.79101 -0.7031,-0.35156 -1.7578,-0.35156 -1.1865,0 -1.8457,0.52734 -0.6592,0.52734 -0.6592,1.3623 0,0.57129 0.3516,1.05469 0.3955,0.4834 1.5381,0.8789 1.1865,0.39551 3.6474,0.87891 3.0322,0.48339 4.834,1.58202 1.8018,1.05469 2.5488,2.50488 0.791,1.40625 0.791,2.98827 0,2.10937 -1.2744,3.73535 -1.2744,1.62597 -3.7353,2.54882 -2.417,0.8789 -5.9766,0.8789 z"
         id="path532"
         inkscape:label="S" /><path
         d="m 1784.4882,262.91721 q -3.6913,0 -6.2402,-1.18652 -2.5048,-1.18652 -3.8671,-3.38378 -1.3184,-2.2412 -1.4942,-5.31737 -0.044,-0.8789 -0.044,-1.97753 0,-1.14258 0.044,-1.97754 0.1758,-3.12011 1.582,-5.31737 1.4063,-2.19726 3.9112,-3.38378 2.5488,-1.18652 6.1083,-1.18652 3.6036,0 6.1084,1.18652 2.5489,1.18652 3.9551,3.38378 1.4062,2.19726 1.582,5.31737 0.044,0.83496 0.044,1.97754 0,1.09863 -0.044,1.97753 -0.1758,3.07617 -1.5381,5.31737 -1.3183,2.19726 -3.8671,3.38378 -2.5049,1.18652 -6.2403,1.18652 z m 0,-5.36131 q 1.9776,0 2.8565,-1.18652 0.9228,-1.18652 1.0547,-3.55957 0.044,-0.65917 0.044,-1.7578 0,-1.09863 -0.044,-1.75781 -0.1319,-2.3291 -1.0547,-3.51562 -0.8789,-1.23046 -2.8565,-1.23046 -1.8896,0 -2.8564,1.23046 -0.9228,1.18652 -1.0107,3.51562 -0.044,0.65918 -0.044,1.75781 0,1.09863 0.044,1.7578 0.088,2.37305 1.0107,3.55957 0.9668,1.18652 2.8564,1.18652 z"
         id="path534"
         inkscape:label="O" /><path
         d="m 1809.9325,262.91721 q -2.8564,0 -4.8779,-0.61523 -1.9775,-0.65918 -3.2519,-1.58203 -1.2305,-0.92285 -1.8457,-1.88964 -0.6153,-1.01074 -0.6592,-1.75781 -0.044,-0.4834 0.3076,-0.79101 0.3516,-0.30762 0.7471,-0.30762 h 5.0097 q 0.1319,0 0.2198,0.0439 0.1318,0.0439 0.2636,0.17579 0.5713,0.30761 1.1426,0.79101 0.5713,0.43945 1.3184,0.79101 0.747,0.35156 1.8017,0.35156 1.2305,0 2.0654,-0.48339 0.835,-0.52735 0.835,-1.45019 0,-0.70313 -0.3955,-1.14258 -0.3955,-0.4834 -1.626,-0.92285 -1.1865,-0.43945 -3.6035,-0.8789 -2.2851,-0.52735 -3.999,-1.3623 -1.7139,-0.87891 -2.6367,-2.24121 -0.9229,-1.40625 -0.9229,-3.38378 0,-1.75781 1.1426,-3.38378 1.1426,-1.62597 3.3398,-2.63671 2.1973,-1.05469 5.4492,-1.05469 2.5049,0 4.3946,0.61524 1.8896,0.57128 3.164,1.49413 1.2744,0.92285 1.9336,1.88965 0.6592,0.96679 0.7031,1.7578 0.044,0.43946 -0.2636,0.79102 -0.3077,0.30761 -0.7032,0.30761 h -4.5703 q -0.1757,0 -0.3515,-0.0439 -0.1758,-0.0879 -0.3076,-0.17578 -0.5274,-0.26367 -1.0547,-0.70313 -0.5274,-0.43945 -1.2305,-0.79101 -0.7031,-0.35156 -1.7578,-0.35156 -1.1865,0 -1.8457,0.52734 -0.6592,0.52734 -0.6592,1.3623 0,0.57129 0.3516,1.05469 0.3955,0.4834 1.5381,0.8789 1.1865,0.39551 3.6474,0.87891 3.0322,0.48339 4.834,1.58202 1.8017,1.05469 2.5488,2.50488 0.791,1.40625 0.791,2.98827 0,2.10937 -1.2744,3.73535 -1.2744,1.62597 -3.7353,2.54882 -2.417,0.8789 -5.9766,0.8789 z"
         id="path536"
         inkscape:label="S" /></g></g></svg>
